HIERARCHY
ROOT root
{
	OFFSET	0	13.1	24.9
	CHANNELS 6  Xposition Yposition Zposition Xrotation Yrotation Zrotation
	JOINT spine_1
	{
		OFFSET	0	9.99999	0
		CHANNELS 3  Xrotation Yrotation Zrotation
		JOINT spine_2
		{
			OFFSET	0	112	-10
			CHANNELS 3  Xrotation Yrotation Zrotation
			JOINT spine_3
			{
				OFFSET	0	206.5	19.3
				CHANNELS 3  Xrotation Yrotation Zrotation
				JOINT spine_4
				{
					OFFSET	0	110.4	14.6
					CHANNELS 3  Xrotation Yrotation Zrotation
					JOINT neck_1
					{
						OFFSET	0	71.8	-50.3
						CHANNELS 3  Xrotation Yrotation Zrotation
						JOINT neck_2
						{
							OFFSET	0	86.2	-25.8
							CHANNELS 3  Xrotation Yrotation Zrotation
							JOINT head_ee
							{
								OFFSET	0	179.8	-8.7
								CHANNELS 3  Xrotation Yrotation Zrotation
								End Site
								{
									OFFSET	1	0	0
								}
							}
						}
					}
					JOINT left_clavicle
					{
						OFFSET	-43.2	22.4	-70.8
						CHANNELS 3  Xrotation Yrotation Zrotation
						JOINT left_shoulder
						{
							OFFSET	-93.9	-5.79999	48.7
							CHANNELS 3  Xrotation Yrotation Zrotation
							JOINT left_elbow
							{
								OFFSET	-291.4	-30.8	15.2
								CHANNELS 3  Xrotation Yrotation Zrotation
								JOINT left_lowarm_twist
								{
									OFFSET	-110.7	-3.89999	13.6
									CHANNELS 3  Xrotation Yrotation Zrotation
									JOINT left_hand
									{
										OFFSET	-110.7	-3.89999	13.6
										CHANNELS 3  Xrotation Yrotation Zrotation
										JOINT left_ee
										{
											OFFSET	-80.8	-5.10001	12.1
											CHANNELS 3  Xrotation Yrotation Zrotation
											End Site
											{
												OFFSET	1	0	0
											}
										}
									}
								}
							}
						}
					}
					JOINT right_clavicle
					{
						OFFSET	43.2	22.4	-70.8
						CHANNELS 3  Xrotation Yrotation Zrotation
						JOINT right_shoulder
						{
							OFFSET	93.9	-5.79999	48.7
							CHANNELS 3  Xrotation Yrotation Zrotation
							JOINT right_elbow
							{
								OFFSET	291.4	-30.8	15.2
								CHANNELS 3  Xrotation Yrotation Zrotation
								JOINT right_lowarm_twist
								{
									OFFSET	110.7	-3.89999	13.6
									CHANNELS 3  Xrotation Yrotation Zrotation
									JOINT right_hand
									{
										OFFSET	110.7	-3.89999	13.6
										CHANNELS 3  Xrotation Yrotation Zrotation
										JOINT right_ee
										{
											OFFSET	80.8	-5.10001	12.1
											CHANNELS 3  Xrotation Yrotation Zrotation
											End Site
											{
												OFFSET	1	0	0
											}
										}
									}
								}
							}
						}
					}
				}
			}
		}
	}
	JOINT left_hip
	{
		OFFSET	-82.8	-127.5	0.300001
		CHANNELS 3  Xrotation Yrotation Zrotation
		JOINT left_knee
		{
			OFFSET	-28.2	-396.7	2.2
			CHANNELS 3  Xrotation Yrotation Zrotation
			JOINT left_ankle
			{
				OFFSET	-11.7	-411.3	35.4
				CHANNELS 3  Xrotation Yrotation Zrotation
				JOINT left_toes
				{
					OFFSET	0	-60	-88.6
					CHANNELS 3  Xrotation Yrotation Zrotation
					JOINT left_foot_ee
					{
						OFFSET	-22.5	-16.5	-42.2
						CHANNELS 3  Xrotation Yrotation Zrotation
						End Site
						{
							OFFSET	1	0	0
						}
					}
				}
			}
		}
	}
	JOINT right_hip
	{
		OFFSET	82.8	-127.5	0.300001
		CHANNELS 3  Xrotation Yrotation Zrotation
		JOINT right_knee
		{
			OFFSET	28.2	-396.7	2.2
			CHANNELS 3  Xrotation Yrotation Zrotation
			JOINT right_ankle
			{
				OFFSET	11.7	-411.3	35.4
				CHANNELS 3  Xrotation Yrotation Zrotation
				JOINT right_toes
				{
					OFFSET	0	-60	-88.6
					CHANNELS 3  Xrotation Yrotation Zrotation
					JOINT right_foot_ee
					{
						OFFSET	22.5	-16.5	-42.2
						CHANNELS 3  Xrotation Yrotation Zrotation
						End Site
						{
							OFFSET	1	0	0
						}
					}
				}
			}
		}
	}
}
MOTION
Frames: 6
Frame Time: 0.02
1041.4 574.639 -1682.42 -2.40758693386 27.9355210218 8.75597982133 2.1546 -0.378299 -1.16953 2.15531 -0.303118 -1.19123 2.16162 -0.0923143 -1.22572 2.15964 -0.284721 -1.19576 -5.98325 13.8076 1.58499 -5.91835 24.3961 4.20122 -0.0 0.0 -0.0 -6.89651 23.3238 -6.87009 -23.8633 -28.1213 78.2534 0.99294 -26.1908 0.230986 0.0329133 0.00115844 -0.00404379 4.17745 12.4816 33.6379 -0.0 0.0 -0.0 10.1165 6.95402 -20.0961 -7.36476 28.6841 -55.3679 1.6525 39.3006 -0.590098 -37.701 2.71004 -3.8907 -6.86535 2.90063 55.887 0.0 0.0 0.0 26.4908 -3.90039 -18.7044 5.91526 -0.288378 -0.861255 15.317 13.6406 -2.14638 -30.5316 0.0 0.0 -0.0 0.0 -0.0 -13.6467 43.0869 -7.17631 -9.18 -0.267736 -1.3819 42.7756 -23.805 5.3862 12.1735 -0.0 -0.0 0.0 0.0 0.0 
1041.4 574.639 -1682.42 -2.41791227261 28.3932214312 8.77785524175 2.1546 -0.378299 -1.16953 2.15531 -0.303118 -1.19123 2.16162 -0.0923143 -1.22572 2.15964 -0.284721 -1.19576 -5.98325 13.8076 1.58499 -5.91835 24.3961 4.20122 -0.0 0.0 -0.0 -6.89651 23.3238 -6.87009 -23.8633 -28.1213 78.2534 0.99294 -26.1908 0.230986 0.0329133 0.00115844 -0.00404379 4.17745 12.4816 33.6379 -0.0 0.0 -0.0 10.1165 6.95402 -20.0961 -7.36476 28.6841 -55.3679 1.6525 39.3006 -0.590098 -37.701 2.71004 -3.8907 -6.86535 2.90063 55.887 0.0 0.0 0.0 26.4908 -3.90039 -18.7044 5.91526 -0.288378 -0.861255 15.317 13.6406 -2.14638 -30.5316 0.0 0.0 -0.0 0.0 -0.0 -13.6467 43.0869 -7.17631 -9.18 -0.267736 -1.3819 42.7756 -23.805 5.3862 12.1735 -0.0 -0.0 0.0 0.0 0.0 
1041.4 574.639 -1682.42 -2.43265517187 29.0287136887 8.80854411863 2.1546 -0.378299 -1.16953 2.15531 -0.303118 -1.19123 2.16162 -0.0923143 -1.22572 2.15964 -0.284721 -1.19576 -5.98325 13.8076 1.58499 -5.91835 24.3961 4.20122 -0.0 0.0 -0.0 -6.89651 23.3238 -6.87009 -23.8633 -28.1213 78.2534 0.99294 -26.1908 0.230986 0.0329133 0.00115844 -0.00404379 4.17745 12.4816 33.6379 -0.0 0.0 -0.0 10.1165 6.95402 -20.0961 -7.36476 28.6841 -55.3679 1.6525 39.3006 -0.590098 -37.701 2.71004 -3.8907 -6.86535 2.90063 55.887 0.0 0.0 0.0 26.4908 -3.90039 -18.7044 5.91526 -0.288378 -0.861255 15.317 13.6406 -2.14638 -30.5316 0.0 0.0 -0.0 0.0 -0.0 -13.6467 43.0869 -7.17631 -9.18 -0.267736 -1.3819 42.7756 -23.805 5.3862 12.1735 -0.0 -0.0 0.0 0.0 0.0 
1041.4 574.639 -1682.42 -2.4379943443 29.2538800792 8.81950827761 2.1546 -0.378299 -1.16953 2.15531 -0.303118 -1.19123 2.16162 -0.0923143 -1.22572 2.15964 -0.284721 -1.19576 -5.98325 13.8076 1.58499 -5.91835 24.3961 4.20122 -0.0 0.0 -0.0 -6.89651 23.3238 -6.87009 -23.8633 -28.1213 78.2534 0.99294 -26.1908 0.230986 0.0329133 0.00115844 -0.00404379 4.17745 12.4816 33.6379 -0.0 0.0 -0.0 10.1165 6.95402 -20.0961 -7.36476 28.6841 -55.3679 1.6525 39.3006 -0.590098 -37.701 2.71004 -3.8907 -6.86535 2.90063 55.887 0.0 0.0 0.0 26.4908 -3.90039 -18.7044 5.91526 -0.288378 -0.861255 15.317 13.6406 -2.14638 -30.5316 0.0 0.0 -0.0 0.0 -0.0 -13.6467 43.0869 -7.17631 -9.18 -0.267736 -1.3819 42.7756 -23.805 5.3862 12.1735 -0.0 -0.0 0.0 0.0 0.0 
1016.87426885 573.598 -1703.67554779 -1.63447704409 31.1131788494 8.8280541773 2.04989 -0.512261 -1.35057 2.0508 -0.425291 -1.38042 2.06113 -0.177414 -1.4335 2.05848 -0.401561 -1.38751 -6.20869 15.2714 3.13596 -6.14046 26.027 6.08482 -0.0 0.0 -0.0 -7.2255 22.2329 -7.69818 -22.1316 -28.6958 78.9408 1.01251 -26.6363 0.239693 -0.538245 -0.0192752 0.0660355 4.17757 11.3464 33.3007 -0.0 0.0 -0.0 10.0054 6.70947 -19.8546 -9.14264 27.8802 -55.7264 1.62742 38.872 -0.574289 -38.3922 2.78182 -3.94281 -6.99513 2.4349 57.0861 0.0 0.0 0.0 25.1102 -3.55324 -20.3196 4.93513 -0.234457 -0.720633 16.0408 13.5082 -2.24082 -30.7938 0.0 0.0 -0.0 0.0 -0.0 -14.7115 40.3096 -7.69346 -10.3904 -0.286406 -1.56669 42.5884 -23.3569 5.35521 12.7098 -0.0 -0.0 0.0 0.0 0.0 
1002.38091823 568.865 -1709.30881845 -0.844538136172 31.7128741924 8.96891965495 1.91064 -0.546846 -1.62367 1.91199 -0.442434 -1.65517 1.92492 -0.142214 -1.70735 1.92108 -0.410036 -1.66349 -5.9726 15.4553 0.0182009 -5.87732 28.5989 2.93925 -0.0 0.0 -0.0 -6.68938 21.3268 -7.19691 -20.1237 -29.5551 79.6686 0.992093 -26.1715 0.230612 -1.3313 -0.0488058 0.163001 4.09359 10.5264 32.3964 -0.0 0.0 -0.0 9.73967 6.50598 -19.2819 -10.8283 27.2598 -55.3133 1.60799 38.5361 -0.562136 -39.0783 2.85368 -3.99368 -7.21644 1.91714 59.4721 0.0 0.0 0.0 22.2959 -2.91218 -21.5737 2.56613 -0.114148 -0.377181 16.8494 11.7056 -2.3394 -29.7935 0.0 0.0 -0.0 0.0 -0.0 -13.966 37.7298 -8.86966 -10.8108 -0.291976 -1.63096 42.1414 -23.4406 5.3177 12.7506 -0.0 -0.0 0.0 0.0 0.0 
